<svg width="26" height="29" viewBox="0 0 26 29" fill="none" xmlns="http://www.w3.org/2000/svg">
<circle cx="13" cy="14" r="13" fill="#E0AD0C"/>
<path d="M17.013 17.371C17.013 17.979 16.861 18.5617 16.557 19.119C16.253 19.6637 15.8033 20.1197 15.208 20.487C14.6253 20.8543 13.9223 21.0633 13.099 21.114V22.653H12.073V21.114C10.9203 21.0127 9.983 20.6453 9.261 20.012C8.539 19.366 8.17167 18.549 8.159 17.561H10.002C10.0527 18.093 10.249 18.5553 10.591 18.948C10.9457 19.3407 11.4397 19.5877 12.073 19.689V14.939C11.2243 14.7237 10.5403 14.502 10.021 14.274C9.50167 14.046 9.05833 13.6913 8.691 13.21C8.32367 12.7287 8.14 12.0827 8.14 11.272C8.14 10.246 8.49467 9.39733 9.204 8.726C9.926 8.05467 10.8823 7.681 12.073 7.605V6.028H13.099V7.605C14.1757 7.69367 15.0433 8.042 15.702 8.65C16.3607 9.24533 16.7407 10.0243 16.842 10.987H14.999C14.9357 10.5437 14.7393 10.1447 14.41 9.79C14.0807 9.42267 13.6437 9.182 13.099 9.068V13.704C13.935 13.9193 14.6127 14.141 15.132 14.369C15.664 14.5843 16.1073 14.9327 16.462 15.414C16.8293 15.8953 17.013 16.5477 17.013 17.371ZM9.907 11.177C9.907 11.7977 10.0907 12.2727 10.458 12.602C10.8253 12.9313 11.3637 13.2037 12.073 13.419V9.03C11.4143 9.09333 10.8887 9.30867 10.496 9.676C10.1033 10.0307 9.907 10.531 9.907 11.177ZM13.099 19.708C13.783 19.632 14.315 19.385 14.695 18.967C15.0877 18.549 15.284 18.0487 15.284 17.466C15.284 16.8453 15.094 16.3703 14.714 16.041C14.334 15.699 13.7957 15.4267 13.099 15.224V19.708Z" fill="white"/>
</svg>
