<svg width="10" height="18" viewBox="0 0 10 18" fill="none" xmlns="http://www.w3.org/2000/svg">
<path d="M9.82536 12.1321C9.82536 12.7546 9.66973 13.3512 9.35847 13.9218C9.04721 14.4795 8.5868 14.9464 7.97725 15.3225C7.38067 15.6986 6.66089 15.9126 5.81789 15.9645V17.5402H4.76739V15.9645C3.5872 15.8607 2.62748 15.4846 1.88824 14.8362C1.14899 14.1747 0.772889 13.3382 0.75992 12.3266H2.64693C2.69881 12.8713 2.89983 13.3447 3.25 13.7468C3.61313 14.1488 4.11893 14.4017 4.76739 14.5055V9.64202C3.89846 9.42155 3.19812 9.19459 2.66639 8.96114C2.13465 8.7277 1.68073 8.36456 1.30462 7.87173C0.928519 7.3789 0.740466 6.71748 0.740466 5.88745C0.740466 4.83695 1.1036 3.96802 1.82988 3.28065C2.56912 2.59329 3.54829 2.2107 4.76739 2.13288V0.518222H5.81789V2.13288C6.92027 2.22367 7.80866 2.58032 8.48305 3.20284C9.15745 3.81239 9.54652 4.60999 9.65028 5.59565H7.76326C7.69842 5.14173 7.4974 4.7332 7.1602 4.37006C6.823 3.99396 6.37556 3.74754 5.81789 3.63082V8.37753C6.67385 8.59801 7.3677 8.82497 7.89944 9.05841C8.44414 9.27889 8.89806 9.63554 9.2612 10.1284C9.63731 10.6212 9.82536 11.2891 9.82536 12.1321ZM2.54966 5.79018C2.54966 6.42567 2.73772 6.91202 3.11382 7.24921C3.48993 7.58641 4.04112 7.86525 4.76739 8.08572V3.59191C4.09299 3.65676 3.55477 3.87723 3.15273 4.25334C2.75069 4.61648 2.54966 5.12876 2.54966 5.79018ZM5.81789 14.5249C6.51822 14.4471 7.06293 14.1942 7.452 13.7662C7.85405 13.3382 8.05507 12.826 8.05507 12.2294C8.05507 11.5939 7.86053 11.1075 7.47146 10.7703C7.08238 10.4202 6.53119 10.1413 5.81789 9.93383V14.5249Z" fill="white"/>
</svg>
