<svg width="11" height="13" viewBox="0 0 11 13" fill="none" xmlns="http://www.w3.org/2000/svg">
<path d="M10.3169 8.19189L5.94253 12.5663C5.8844 12.6244 5.8157 12.6701 5.73882 12.7019C5.66257 12.7338 5.58127 12.75 5.50002 12.75C5.41877 12.75 5.33747 12.7332 5.26122 12.7019C5.18435 12.6701 5.11564 12.6244 5.05752 12.5663L0.683129 8.19189C0.438754 7.94752 0.438754 7.55248 0.683129 7.30811C0.927504 7.06373 1.32254 7.06373 1.56692 7.30811L4.87502 10.6162L4.87502 0.875C4.87502 0.53 5.1544 0.25 5.50002 0.25C5.84565 0.25 6.12502 0.53 6.12502 0.875L6.12502 10.6162L9.43313 7.30811C9.6775 7.06373 10.0725 7.06373 10.3169 7.30811C10.5613 7.55248 10.5613 7.94752 10.3169 8.19189Z" fill="white"/>
</svg>
