<svg width="14" height="17" viewBox="0 0 14 17" fill="none" xmlns="http://www.w3.org/2000/svg">
<path d="M1.14837 7.6906C1.30618 7.84841 1.51338 7.92769 1.72055 7.92769C1.92772 7.92769 2.13492 7.84841 2.29273 7.6906L6.57618 3.40714V16.0204C6.57618 16.4671 6.93793 16.8297 7.38546 16.8297C7.83298 16.8297 8.19473 16.4671 8.19473 16.0204V3.40714L12.4782 7.6906C12.7946 8.00702 13.3061 8.00702 13.6225 7.6906C13.939 7.37417 13.939 6.86266 13.6225 6.54624L7.95843 0.88212C7.88317 0.806857 7.7942 0.747747 7.69466 0.706475C7.4972 0.624738 7.27371 0.624738 7.07625 0.706475C6.97671 0.747747 6.88775 0.806857 6.81249 0.88212L1.14837 6.54624C0.831943 6.86266 0.831943 7.37417 1.14837 7.6906Z" fill="white"/>
</svg>
