<svg width="27" height="25" viewBox="0 0 27 25" fill="none" xmlns="http://www.w3.org/2000/svg">
<path d="M25.5131 24.8167L3.69166 24.8167C1.65234 24.8167 0.385376 23.5295 0.385376 21.4575L0.385376 1.97407C0.385376 1.23236 0.977862 0.630386 1.70789 0.630386C2.43792 0.630386 3.0304 1.23236 3.0304 1.97407L3.0304 21.4575C3.0304 22.0608 3.09785 22.1294 3.69166 22.1294L25.5131 22.1294C26.2431 22.1294 26.8356 22.7313 26.8356 23.473C26.8356 24.2148 26.2431 24.8167 25.5131 24.8167ZM16.2555 18.0983V12.7236C16.2555 11.9818 15.663 11.3799 14.933 11.3799C14.203 11.3799 13.6105 11.9818 13.6105 12.7236V18.0983C13.6105 18.84 14.203 19.442 14.933 19.442C15.663 19.442 16.2555 18.84 16.2555 18.0983ZM21.5456 19.442C20.8155 19.442 20.2231 18.84 20.2231 18.0983V10.0362C20.2231 9.29447 20.8155 8.6925 21.5456 8.6925C22.2756 8.6925 22.8681 9.29447 22.8681 10.0362V18.0983C22.8681 18.84 22.2756 19.442 21.5456 19.442ZM8.32045 19.442C7.59042 19.442 6.99794 18.84 6.99794 18.0983L6.99794 15.4109C6.99794 14.6692 7.59042 14.0672 8.32045 14.0672C9.05048 14.0672 9.64296 14.6692 9.64296 15.4109V18.0983C9.64296 18.84 9.05048 19.442 8.32045 19.442ZM22.7663 1.46084C22.6327 1.13298 22.3748 0.870942 22.0508 0.733886C21.8894 0.665358 21.7175 0.630386 21.5456 0.630386L17.578 0.630386C16.848 0.630386 16.2555 1.23236 16.2555 1.97407C16.2555 2.71579 16.848 3.31776 17.578 3.31776H18.353L15.8164 5.8949C15.6895 6.02255 15.4686 6.0239 15.339 5.8949L13.8182 4.34963C12.6557 3.16719 10.7618 3.16719 9.60063 4.34963L7.38543 6.60037C6.86833 7.12575 6.86833 7.97505 7.38543 8.50043C7.64332 8.76245 7.98189 8.89409 8.32045 8.89409C8.65901 8.89409 8.99758 8.76245 9.25547 8.50043L11.4707 6.24969C11.6003 6.11801 11.8198 6.11801 11.9481 6.24969L13.469 7.79496C14.6315 8.97606 16.524 8.97606 17.6865 7.79496L20.2231 5.21765V6.00513C20.2231 6.74684 20.8155 7.34881 21.5456 7.34881C22.2756 7.34881 22.8681 6.74684 22.8681 6.00513V1.97407C22.8681 1.79939 22.8324 1.62477 22.7663 1.46084Z" fill="white"/>
</svg>
