<svg width="19" height="19" viewBox="0 0 19 19" fill="none" xmlns="http://www.w3.org/2000/svg">
<path d="M9.49998 0.989563C4.80698 0.989563 0.989563 4.80698 0.989563 9.49998C0.989563 14.193 4.80698 18.0104 9.49998 18.0104C14.193 18.0104 18.0104 14.193 18.0104 9.49998C18.0104 4.80698 14.193 0.989563 9.49998 0.989563ZM9.49998 16.8229C5.46169 16.8229 2.17706 13.5383 2.17706 9.49998C2.17706 5.46169 5.46169 2.17706 9.49998 2.17706C13.5383 2.17706 16.8229 5.46169 16.8229 9.49998C16.8229 13.5383 13.5383 16.8229 9.49998 16.8229ZM12.2946 11.4554C12.5265 11.6873 12.5265 12.0634 12.2946 12.2954C12.179 12.4109 12.027 12.4695 11.875 12.4695C11.723 12.4695 11.571 12.4117 11.4554 12.2954L9.08037 9.92036C8.96875 9.80873 8.90623 9.6575 8.90623 9.50075L8.90623 5.54242C8.90623 5.21467 9.17223 4.94867 9.49998 4.94867C9.82773 4.94867 10.0937 5.21467 10.0937 5.54242V9.25452L12.2946 11.4554Z" fill="white"/>
</svg>
