<svg width="27" height="28" viewBox="0 0 27 28" fill="none" xmlns="http://www.w3.org/2000/svg">
<path d="M26.3915 17.0741C26.3902 14.4001 23.0416 12.3403 18.4565 12.0796L18.4565 5.94972C18.4551 2.47898 13.9731 0.924347 9.5295 0.924347C5.08586 0.924347 0.603862 2.47763 0.602539 5.94972L0.602539 20.7572C0.602539 24.2279 5.08586 25.7825 9.5295 25.7825C9.98841 25.7825 10.4592 25.7395 10.9274 25.6925C12.6387 26.664 15.055 27.1262 17.4646 27.1262C21.9069 27.1262 26.3915 25.5716 26.3915 22.1008V17.0741C26.3915 17.0754 26.3915 17.0754 26.3915 17.0741ZM24.4078 17.0768C24.4078 18.4984 21.4387 20.088 17.4646 20.088C13.4904 20.088 10.5214 18.4984 10.5214 17.0768C10.5214 16.5554 10.9274 16.0126 11.6297 15.5329C11.6535 15.5195 11.672 15.5006 11.6945 15.4858C12.9165 14.6796 14.9954 14.0656 17.4646 14.0656C21.4387 14.0656 24.4078 15.6552 24.4078 17.0768ZM16.4727 10.7064C16.4727 11.3124 15.949 11.8189 15.4504 12.1723C13.6108 12.394 12.0224 12.9168 10.8309 13.6531C10.4077 13.6894 9.98177 13.7163 9.53079 13.7163C5.79072 13.7163 2.5876 12.0609 2.5876 10.7064L2.5876 9.29286C4.30819 10.4377 6.92279 10.9778 9.53079 10.9778C12.1388 10.9778 14.7534 10.4377 16.474 9.29286V10.7064H16.4727ZM2.58631 13.8224C4.17729 14.9161 6.51948 15.6001 8.85371 15.7129C8.65269 16.1442 8.53761 16.5985 8.53761 17.0755C8.53761 17.0755 8.53761 17.0754 8.53761 17.0768V18.7C5.24191 18.4433 2.58631 16.9666 2.58631 15.7331L2.58631 13.8224ZM9.5295 2.93988C12.9429 2.93988 16.4727 4.06592 16.4727 5.95111C16.4727 7.90752 12.8953 8.96227 9.5295 8.96227C6.1637 8.96227 2.58631 7.90752 2.58631 5.95111C2.58631 4.06592 6.11609 2.93988 9.5295 2.93988ZM2.58631 20.7572L2.58631 18.8478C4.10587 19.8918 6.30786 20.5623 8.53761 20.7182L8.53761 22.1008C8.53761 22.7122 8.68309 23.2605 8.93701 23.7549C5.71934 23.6327 2.58631 22.5322 2.58631 20.7572ZM17.4646 25.1107C15.3234 25.1107 13.1373 24.6673 11.8056 23.8718C11.0134 23.3988 10.5227 22.8022 10.5227 22.1008V20.3084C12.1335 21.4183 14.6013 22.1036 17.4659 22.1036C20.3304 22.1036 22.7982 21.4183 24.4091 20.3084V22.1008C24.4077 23.9847 20.878 25.1107 17.4646 25.1107Z" fill="white"/>
</svg>
