<svg width="24" height="25" viewBox="0 0 24 25" fill="none" xmlns="http://www.w3.org/2000/svg">
<path d="M19.4392 0.0310669L4.56089 0.0310669C1.58524 0.0310669 0.0974121 1.54271 0.0974121 4.56601L0.0974121 19.6825C0.0974121 22.7058 1.58524 24.2174 4.56089 24.2174L19.4392 24.2174C22.4148 24.2174 23.9026 22.7058 23.9026 19.6825L23.9026 4.56601C23.9026 1.54271 22.4148 0.0310669 19.4392 0.0310669ZM5.13206 10.6985C4.97998 10.3223 5.06341 9.88844 5.34775 9.60089L8.91847 5.973C9.30596 5.5793 9.9342 5.5793 10.3217 5.973C10.7092 6.3667 10.7092 7.00467 10.3217 7.39837L8.44383 9.30663L15.572 9.30663C16.1196 9.30663 16.5639 9.75811 16.5639 10.3144C16.5639 10.8707 16.1196 11.3222 15.572 11.3222L6.05001 11.3222C5.64664 11.3208 5.28548 11.0748 5.13206 10.6985ZM18.6523 14.6532L15.0816 18.281C14.8885 18.4772 14.6345 18.5766 14.3806 18.5766C14.1267 18.5766 13.8727 18.4786 13.6796 18.281C13.2921 17.8873 13.2921 17.249 13.6796 16.8553L15.5575 14.9487L8.4293 14.9487C7.88178 14.9487 7.43742 14.4973 7.43742 13.941C7.43742 13.3847 7.88178 12.9332 8.4293 12.9332L17.9513 12.9332C18.3534 12.9332 18.7146 13.179 18.868 13.5552C19.0214 13.9314 18.9366 14.3656 18.6523 14.6532Z" fill="#8B92A1"/>
</svg>
