<svg width="18" height="16" viewBox="0 0 18 16" fill="none" xmlns="http://www.w3.org/2000/svg">
<path d="M5.71895 15.2043C5.93343 15.2043 6.14794 15.1222 6.31132 14.9588C6.63891 14.6312 6.63891 14.1017 6.31132 13.7741L3.55238 11.0152H14.0972C14.5605 11.0152 14.935 10.6398 14.935 10.1773C14.935 9.71485 14.5605 9.3395 14.0972 9.3395H1.52981C1.19133 9.3395 0.884623 9.54389 0.755598 9.85639C0.625735 10.1697 0.697822 10.5301 0.937441 10.7697L5.12658 14.9588C5.28995 15.1222 5.50446 15.2043 5.71895 15.2043ZM3.20546 5.9882C3.20546 5.52571 3.57997 5.15037 4.04329 5.15037H14.5881L11.8292 2.39143C11.5016 2.06384 11.5016 1.53428 11.8292 1.20669C12.1568 0.879101 12.6863 0.879101 13.0139 1.20669L17.2031 5.39583C17.4427 5.63544 17.5148 5.99578 17.3849 6.30913C17.2559 6.62248 16.9492 6.82602 16.6107 6.82602H4.04329C3.57997 6.82602 3.20546 6.45068 3.20546 5.9882Z" fill="#8B92A1"/>
</svg>
