<svg width="17" height="17" viewBox="0 0 17 17" fill="none" xmlns="http://www.w3.org/2000/svg">
<path d="M15.8063 9.9788C14.7645 11.7173 12.4267 14.6354 8.5 14.6354C7.73762 14.6354 6.98481 14.5198 6.26281 14.291C5.9501 14.1921 5.77748 13.8588 5.87644 13.5461C5.97461 13.2326 6.311 13.0616 6.62134 13.159C7.22696 13.3506 7.85875 13.4479 8.5 13.4479C11.8424 13.4479 13.8755 10.8909 14.7891 9.36611C15.1121 8.83094 15.112 8.16831 14.7906 7.63472C14.5167 7.17318 14.1818 6.70133 13.82 6.2667C13.6102 6.01416 13.6451 5.63977 13.8977 5.43077C14.151 5.22098 14.5246 5.25576 14.7344 5.50751C15.135 5.98963 15.507 6.5145 15.8094 7.02512C16.358 7.93317 16.3581 9.0668 15.8063 9.9788ZM6.96653 10.8735L1.7946 16.0454C1.67902 16.161 1.527 16.2196 1.375 16.2196C1.223 16.2196 1.07097 16.1618 0.955391 16.0454C0.723433 15.8134 0.723433 15.4374 0.955391 15.2054L3.46897 12.6918C2.41764 11.7854 1.6537 10.746 1.19216 9.97725C0.64274 9.06684 0.642703 7.93324 1.1937 7.02203C2.23554 5.28353 4.57333 2.36539 8.5 2.36539C9.95271 2.36539 11.3223 2.77621 12.5811 3.57975L15.2046 0.956195C15.4366 0.724237 15.8126 0.724237 16.0446 0.956195C16.2766 1.18815 16.2766 1.56422 16.0446 1.79618L6.96808 10.8727C6.96808 10.8727 6.9681 10.8735 6.9673 10.8735C6.96651 10.8735 6.96653 10.8727 6.96653 10.8735ZM6.60703 9.55378L9.55375 6.60706C9.2355 6.42736 8.87841 6.32372 8.5 6.32372C7.29983 6.32372 6.32369 7.29984 6.32369 8.5008C6.32369 8.87843 6.42812 9.23553 6.60703 9.55378ZM4.30973 11.8503L5.74424 10.4158C5.35237 9.85926 5.13619 9.1983 5.13619 8.49926C5.13619 6.64438 6.64512 5.13467 8.5 5.13467C9.19983 5.13467 9.86 5.35085 10.4165 5.74272L11.7078 4.45143C10.7064 3.86481 9.63366 3.55057 8.5 3.55057C5.15758 3.55057 3.12451 6.10765 2.21093 7.6324C1.88793 8.16757 1.88796 8.8302 2.20938 9.36379C2.6345 10.0739 3.34073 11.0341 4.30973 11.8503ZM10.6438 8.84445C10.5013 9.76278 9.76194 10.5029 8.84519 10.6446C8.5214 10.6945 8.29898 10.9977 8.34885 11.3215C8.39477 11.6152 8.6473 11.825 8.93468 11.825C8.96476 11.825 8.99563 11.8226 9.02571 11.8178C10.4721 11.5946 11.5938 10.4729 11.817 9.02574C11.8669 8.70116 11.6453 8.39878 11.3207 8.34811C11.004 8.29982 10.6937 8.51987 10.6438 8.84445Z" fill="white"/>
</svg>
