<svg width="27" height="28" viewBox="0 0 27 28" fill="none" xmlns="http://www.w3.org/2000/svg">
<path d="M23.4217 6.29909H22.0133C22.2699 5.79252 22.4299 5.22683 22.4299 4.61948C22.4299 2.58245 20.7992 0.924347 18.7929 0.924347C17.7058 0.924347 16.6836 1.41612 15.9813 2.28279C15.9456 2.32848 14.4591 4.33593 13.5029 5.62856C12.5454 4.33459 11.0576 2.32445 11.0153 2.27205C10.3223 1.41478 9.29995 0.924347 8.21284 0.924347C6.20659 0.924347 4.57594 2.58245 4.57594 4.61948C4.57594 5.22683 4.73456 5.79252 4.99245 6.29909H3.58405C1.94414 6.29909 0.608398 7.65487 0.608398 9.32238L0.608398 14.0253C0.608398 14.5816 1.05276 15.033 1.60028 15.033H1.93091L1.93091 22.0874C1.93091 25.3364 3.6925 27.1262 6.89033 27.1262L20.1155 27.1262C23.3133 27.1262 25.0749 25.3364 25.0749 22.0874V15.033H25.4055C25.953 15.033 26.3974 14.5816 26.3974 14.0253V9.32238C26.3974 7.65487 25.0617 6.29909 23.4217 6.29909ZM24.4136 9.32238V13.0175L14.4948 13.0175L14.4948 8.31462H18.7929L23.4217 8.31462C23.9679 8.31462 24.4136 8.7661 24.4136 9.32238ZM17.5219 3.5539C17.842 3.15886 18.293 2.93988 18.7929 2.93988C19.7042 2.93988 20.4461 3.69368 20.4461 4.61948C20.4461 5.54528 19.7042 6.29909 18.7929 6.29909L15.4892 6.29909C16.3819 5.09246 17.4598 3.63586 17.5219 3.5539ZM6.5597 4.61948C6.5597 3.69368 7.30163 2.93988 8.21284 2.93988C8.71275 2.93988 9.16373 3.15752 9.46658 3.53241C9.53932 3.62781 10.6212 5.08977 11.5165 6.29909L8.21284 6.29909C7.30163 6.29909 6.5597 5.54528 6.5597 4.61948ZM2.59217 9.32238C2.59217 8.7661 3.03785 8.31462 3.58405 8.31462L8.21284 8.31462L12.511 8.31462L12.511 13.0175L2.59217 13.0175L2.59217 9.32238ZM3.91468 22.0874L3.91468 15.033L12.511 15.033L12.511 25.1107L6.89033 25.1107C4.80473 25.1107 3.91468 24.2064 3.91468 22.0874ZM23.0911 22.0874C23.0911 24.2064 22.2011 25.1107 20.1155 25.1107H14.4948L14.4948 15.033L23.0911 15.033V22.0874Z" fill="white"/>
</svg>
