<svg width="27" height="27" viewBox="0 0 27 27" fill="none" xmlns="http://www.w3.org/2000/svg">
<path d="M25.1056 16.5228C24.2301 16.0189 23.1933 16.0323 22.3283 16.559L19.723 18.1473C19.3143 16.9729 18.21 16.1291 16.9166 16.1291H9.64278C8.79505 16.1291 8.02404 16.4382 7.40511 16.934C6.98058 16.4449 6.36692 16.1291 5.67524 16.1291H3.03022C1.75399 16.1291 0.71582 17.1839 0.71582 18.4806L0.71582 23.8553C0.71582 25.152 1.75399 26.2068 3.03022 26.2068H5.67524C6.36559 26.2068 6.98058 25.891 7.40511 25.4019C8.02404 25.8977 8.79505 26.2068 9.64278 26.2068H17.0449C18.4652 26.2068 19.8592 25.7096 20.9701 24.808L25.4706 21.1491C26.1279 20.6143 26.5048 19.8163 26.5048 18.9617C26.5048 17.9391 25.9811 17.0267 25.1056 16.5228ZM6.00587 23.8553C6.00587 24.0408 5.85775 24.1913 5.67524 24.1913H3.03022C2.84771 24.1913 2.69959 24.0408 2.69959 23.8553L2.69959 18.4806C2.69959 18.2952 2.84771 18.1447 3.03022 18.1447H5.67524C5.85775 18.1447 6.00587 18.2952 6.00587 18.4806V19.8243L6.00587 22.5116V23.8553ZM24.2301 19.5756L19.7296 23.2332C18.9705 23.8499 18.0169 24.1899 17.0436 24.1899H9.64278C8.73157 24.1899 7.98964 23.4361 7.98964 22.5103L7.98964 19.823C7.98964 18.8972 8.73157 18.1434 9.64278 18.1434H16.9166C17.4641 18.1434 17.9085 18.5948 17.9085 19.1511C17.9085 19.7074 17.4641 20.1589 16.9166 20.1589H12.2878C11.7403 20.1589 11.2959 20.6104 11.2959 21.1666C11.2959 21.7229 11.7403 22.1744 12.2878 22.1744H16.9166C18.0315 22.1744 19.0062 21.5482 19.5153 20.6237L23.3493 18.287C23.6958 18.0734 24.0106 18.2092 24.1283 18.2764C24.246 18.3449 24.521 18.5478 24.521 18.9617C24.521 19.2022 24.4152 19.4265 24.2301 19.5756ZM10.6519 6.63067C10.2167 6.07035 9.97341 5.3542 9.97341 4.62055C9.97341 3.0256 11.1028 1.69798 12.592 1.41044V1.01268C12.592 0.456392 13.0364 0.00491333 13.5839 0.00491333C14.1314 0.00491333 14.5758 0.456392 14.5758 1.01268V1.40092C15.9644 1.64413 17.0647 2.78905 17.2274 4.25904C17.2882 4.81264 16.8968 5.31112 16.3532 5.37293C15.8202 5.44012 15.3177 5.03834 15.2568 4.48474C15.1854 3.84515 14.6564 3.36413 14.0269 3.36413H13.1937C12.5113 3.36413 11.9572 3.92721 11.9572 4.62055C11.9572 4.90138 12.0484 5.17408 12.2137 5.38638C12.3883 5.61481 12.6224 5.76938 12.8949 5.83925L14.8085 6.32165C16.2461 6.69116 17.2472 7.99711 17.2472 9.49666C17.2472 10.3687 16.9113 11.1898 16.3016 11.8092C15.8255 12.293 15.2251 12.6006 14.5758 12.7148V13.1058C14.5758 13.6621 14.1314 14.1136 13.5839 14.1136C13.0364 14.1136 12.592 13.6621 12.592 13.1058V12.7135C11.2272 12.4515 10.1533 11.312 9.99326 9.85948C9.93243 9.30588 10.3239 8.8074 10.8674 8.74559C11.3991 8.67975 11.903 9.08019 11.9638 9.63379C12.0352 10.2734 12.5642 10.7544 13.1937 10.7544H14.0269C14.3549 10.7544 14.6644 10.6227 14.8984 10.3849C15.1338 10.1457 15.2635 9.83121 15.2635 9.49797C15.2635 8.92153 14.8773 8.42039 14.3258 8.27796L12.4121 7.79557C11.7138 7.61551 11.0896 7.20173 10.6519 6.63067Z" fill="white"/>
</svg>
