<svg width="25" height="25" viewBox="0 0 25 25" fill="none" xmlns="http://www.w3.org/2000/svg">
<path fill-rule="evenodd" clip-rule="evenodd" d="M20.8052 24.2174H16.5732C16.3537 24.2174 16.1764 24.0373 16.1764 23.8143L16.1764 18.1708C16.1764 16.3152 14.6965 14.8116 12.8701 14.8116C11.0438 14.8116 9.56386 16.3152 9.56386 18.1708L9.56386 23.8143C9.56386 24.0373 9.38658 24.2174 9.16704 24.2174L4.93507 24.2174C2.29004 24.2174 0.967529 22.8737 0.967529 20.1864L0.967529 11.6553C0.967529 8.97063 1.65927 8.5582 2.85879 7.537L10.7462 0.817092C11.9749 -0.229639 13.7669 -0.229639 14.9955 0.817092L22.8829 7.537C24.0811 8.5582 24.774 8.97063 24.774 11.6553V20.1864C24.7727 22.8737 23.4502 24.2174 20.8052 24.2174Z" fill="white"/>
</svg>
