<svg width="15" height="15" viewBox="0 0 15 15" fill="none" xmlns="http://www.w3.org/2000/svg">
<path d="M13.2396 4.33333L13.2396 2.6004L8.34001 7.5L13.2396 12.3996L13.2396 10.6667C13.2396 10.3389 13.5056 10.0729 13.8334 10.0729C14.1611 10.0729 14.4271 10.3389 14.4271 10.6667L14.4271 13.8333C14.4271 13.9109 14.4112 13.9878 14.3811 14.0606C14.3209 14.2055 14.2055 14.3209 14.0606 14.3811C13.9878 14.4112 13.9109 14.4271 13.8334 14.4271L10.6667 14.4271C10.3389 14.4271 10.0729 14.1611 10.0729 13.8333C10.0729 13.5056 10.3389 13.2396 10.6667 13.2396L12.3996 13.2396L7.50002 8.33999L2.60042 13.2396L4.33335 13.2396C4.6611 13.2396 4.9271 13.5056 4.9271 13.8333C4.9271 14.1611 4.6611 14.4271 4.33335 14.4271L1.16669 14.4271C1.0891 14.4271 1.01223 14.4112 0.939392 14.3811C0.794517 14.3209 0.679104 14.2055 0.618937 14.0606C0.588854 13.9878 0.572937 13.9109 0.572937 13.8333L0.572937 10.6667C0.572937 10.3389 0.838937 10.0729 1.16669 10.0729C1.49444 10.0729 1.76044 10.3389 1.76044 10.6667L1.76044 12.3996L6.66003 7.5L1.76044 2.6004L1.76044 4.33333C1.76044 4.66108 1.49444 4.92708 1.16669 4.92708C0.838937 4.92708 0.572937 4.66108 0.572937 4.33333L0.572937 1.16667C0.572937 1.08908 0.588854 1.01221 0.618937 0.939372C0.679104 0.794497 0.794692 0.678909 0.940358 0.61795C1.01319 0.587867 1.08988 0.572144 1.16746 0.572144L4.33413 0.572144C4.66188 0.572144 4.92788 0.838144 4.92788 1.16589C4.92788 1.49364 4.66188 1.75964 4.33413 1.75964L2.6012 1.75964L7.50079 6.65924L12.4004 1.75964L10.6667 1.75964C10.3389 1.75964 10.0729 1.49364 10.0729 1.16589C10.0729 0.838144 10.3389 0.572144 10.6667 0.572144L13.8334 0.572144C13.9109 0.572144 13.9878 0.587867 14.0606 0.61795C14.2055 0.678117 14.3211 0.793705 14.3821 0.939372C14.4122 1.01221 14.4279 1.08908 14.4279 1.16667L14.4279 4.33333C14.4279 4.66108 14.1619 4.92708 13.8341 4.92708C13.5064 4.92708 13.2396 4.66108 13.2396 4.33333Z" fill="white"/>
</svg>
