<svg width="21" height="15" viewBox="0 0 21 15" fill="none" xmlns="http://www.w3.org/2000/svg">
<path d="M0.916656 1.75002C0.916656 1.22102 1.34599 0.791687 1.87499 0.791687L19.125 0.791687C19.654 0.791687 20.0833 1.22102 20.0833 1.75002C20.0833 2.27902 19.654 2.70835 19.125 2.70835L1.87499 2.70835C1.34599 2.70835 0.916656 2.27902 0.916656 1.75002ZM19.125 6.54169L1.87499 6.54169C1.34599 6.54169 0.916656 6.97102 0.916656 7.50002C0.916656 8.02902 1.34599 8.45835 1.87499 8.45835L19.125 8.45835C19.654 8.45835 20.0833 8.02902 20.0833 7.50002C20.0833 6.97102 19.654 6.54169 19.125 6.54169ZM19.125 12.2917L1.87499 12.2917C1.34599 12.2917 0.916656 12.721 0.916656 13.25C0.916656 13.779 1.34599 14.2084 1.87499 14.2084L19.125 14.2084C19.654 14.2084 20.0833 13.779 20.0833 13.25C20.0833 12.721 19.654 12.2917 19.125 12.2917Z" fill="white"/>
</svg>
