<svg width="27" height="27" viewBox="0 0 27 27" fill="none" xmlns="http://www.w3.org/2000/svg">
<path d="M1.60752 13.4549C1.57181 13.4549 1.53485 13.4535 1.49782 13.4495C0.952945 13.389 0.560157 12.8904 0.61967 12.3382C1.09974 7.88119 3.74739 4.04232 7.7017 2.06979C8.00852 1.91661 8.37352 1.9354 8.66315 2.11949C8.9541 2.30357 9.13132 2.62735 9.13132 2.97537L9.13132 7.07367C9.13132 7.62996 8.68696 8.08144 8.13944 8.08144C7.59192 8.08144 7.14756 7.62996 7.14756 7.07367L7.14756 4.73436C4.60437 6.53221 2.93664 9.35516 2.59278 12.5572C2.53724 13.0718 2.10611 13.4549 1.60752 13.4549ZM25.5199 13.9989C24.9697 13.9412 24.4857 14.3376 24.4262 14.8912C24.0823 18.0932 22.4146 20.9163 19.8714 22.7142V20.3747C19.8714 19.8184 19.427 19.367 18.8795 19.367C18.332 19.367 17.8876 19.8184 17.8876 20.3747L17.8876 24.473C17.8876 24.821 18.0649 25.1448 18.3558 25.3289C18.5158 25.4297 18.697 25.4808 18.8795 25.4808C19.029 25.4808 19.1785 25.4472 19.3173 25.3773C23.2717 23.4061 25.9193 19.5672 26.3994 15.1089C26.4576 14.5566 26.0634 14.0594 25.5199 13.9989ZM11.1944 9.02064L11.1944 3.6459C11.1944 1.75264 12.3067 0.622604 14.1701 0.622604L22.1052 0.622604C23.9686 0.622604 25.0808 1.75264 25.0808 3.6459L25.0808 9.02064C25.0808 10.9139 23.9686 12.0439 22.1052 12.0439L14.1701 12.0439C12.3067 12.0439 11.1944 10.9139 11.1944 9.02064ZM13.1782 9.02064C13.1782 9.81207 13.3911 10.0284 14.1701 10.0284L22.1052 10.0284C22.8841 10.0284 23.0971 9.81207 23.0971 9.02064L23.0971 3.6459C23.0971 2.85447 22.8841 2.63813 22.1052 2.63813L14.1701 2.63813C13.3911 2.63813 13.1782 2.85447 13.1782 3.6459L13.1782 9.02064ZM15.8232 18.4264L15.8232 23.8012C15.8232 25.6944 14.711 26.8245 12.8476 26.8245L4.91251 26.8245C3.04909 26.8245 1.93685 25.6944 1.93685 23.8012L1.93685 18.4264C1.93685 16.5332 3.04909 15.4031 4.91251 15.4031L12.8476 15.4031C14.711 15.4031 15.8232 16.5332 15.8232 18.4264ZM13.8395 18.4264C13.8395 17.635 13.6265 17.4187 12.8476 17.4187L4.91251 17.4187C4.13355 17.4187 3.92062 17.635 3.92062 18.4264L3.92062 23.8012C3.92062 24.5926 4.13355 24.8089 4.91251 24.8089L12.8476 24.8089C13.6265 24.8089 13.8395 24.5926 13.8395 23.8012L13.8395 18.4264ZM8.88004 19.2931C7.96751 19.2931 7.2269 20.0456 7.2269 20.9727C7.2269 21.8999 7.96751 22.6524 8.88004 22.6524C9.79258 22.6524 10.5332 21.8999 10.5332 20.9727C10.5332 20.0456 9.79258 19.2931 8.88004 19.2931ZM18.1376 7.84754C19.0502 7.84754 19.7908 7.09508 19.7908 6.16793C19.7908 5.24079 19.0502 4.48832 18.1376 4.48832C17.2251 4.48832 16.4845 5.24079 16.4845 6.16793C16.4845 7.09508 17.2251 7.84754 18.1376 7.84754Z" fill="white"/>
</svg>
