<svg width="29" height="26" viewBox="0 0 29 26" fill="none" xmlns="http://www.w3.org/2000/svg">
<path d="M14.1782 20.0874C14.1782 20.6437 13.7338 21.0952 13.1863 21.0952L5.25123 21.0952C2.0534 21.0952 0.291809 19.3054 0.291809 16.0563L0.291809 5.30686C0.291809 2.05783 2.0534 0.268036 5.25123 0.268036L21.1214 0.268036C24.3192 0.268036 26.0808 2.05783 26.0808 5.30686L26.0808 9.33791C26.0808 9.8942 25.6364 10.3457 25.0889 10.3457C24.5414 10.3457 24.097 9.8942 24.097 9.33791L24.097 5.30686C24.097 3.18786 23.207 2.28356 21.1214 2.28356L5.25123 2.28356C3.16563 2.28356 2.27558 3.18786 2.27558 5.30686L2.27558 16.0563C2.27558 18.1753 3.16563 19.0796 5.25123 19.0796L13.1863 19.0796C13.7338 19.0796 14.1782 19.5311 14.1782 20.0874ZM3.92872 10.6816C3.92872 11.4233 4.5212 12.0253 5.25123 12.0253C5.98126 12.0253 6.57374 11.4233 6.57374 10.6816C6.57374 9.93989 5.98126 9.33791 5.25123 9.33791C4.5212 9.33791 3.92872 9.93989 3.92872 10.6816ZM13.1863 5.64278C15.9213 5.64278 18.1457 7.90286 18.1457 10.6816C18.1457 13.4603 15.9213 15.7204 13.1863 15.7204C10.4513 15.7204 8.22688 13.4603 8.22688 10.6816C8.22688 7.90286 10.4513 5.64278 13.1863 5.64278ZM13.1863 7.65831C11.5451 7.65831 10.2107 9.01409 10.2107 10.6816C10.2107 12.3491 11.5451 13.7049 13.1863 13.7049C14.8275 13.7049 16.162 12.3491 16.162 10.6816C16.162 9.01409 14.8275 7.65831 13.1863 7.65831ZM24.097 17.7359H23.4358V17.0641C23.4358 16.5078 22.9914 16.0563 22.4439 16.0563C21.8964 16.0563 21.452 16.5078 21.452 17.0641V17.7359H20.7908C20.2432 17.7359 19.7989 18.1874 19.7989 18.7437C19.7989 19.3 20.2432 19.7515 20.7908 19.7515H21.452V20.4233C21.452 20.9796 21.8964 21.4311 22.4439 21.4311C22.9914 21.4311 23.4358 20.9796 23.4358 20.4233V19.7515H24.097C24.6446 19.7515 25.0889 19.3 25.0889 18.7437C25.0889 18.1874 24.6446 17.7359 24.097 17.7359ZM28.7258 18.7437C28.7258 22.2628 25.9076 25.1262 22.4439 25.1262C18.9802 25.1262 16.162 22.2628 16.162 18.7437C16.162 15.2246 18.9802 12.3612 22.4439 12.3612C25.9076 12.3612 28.7258 15.2246 28.7258 18.7437ZM26.7421 18.7437C26.7421 16.3358 24.8138 14.3767 22.4439 14.3767C20.0739 14.3767 18.1457 16.3358 18.1457 18.7437C18.1457 21.1516 20.0739 23.1107 22.4439 23.1107C24.8138 23.1107 26.7421 21.1516 26.7421 18.7437Z" fill="white"/>
</svg>
