<svg width="3" height="17" viewBox="0 0 3 17" fill="none" xmlns="http://www.w3.org/2000/svg">
<path d="M1.51756 2.8125C0.792188 2.8125 0.200684 2.22537 0.200684 1.5C0.200684 0.774625 0.784304 0.1875 1.5088 0.1875H1.51756C2.24294 0.1875 2.83006 0.774625 2.83006 1.5C2.83006 2.22537 2.24294 2.8125 1.51756 2.8125ZM2.83006 8.5C2.83006 7.77463 2.24294 7.1875 1.51756 7.1875H1.5088C0.784304 7.1875 0.200684 7.77463 0.200684 8.5C0.200684 9.22537 0.792188 9.8125 1.51756 9.8125C2.24294 9.8125 2.83006 9.22537 2.83006 8.5ZM2.83006 15.5C2.83006 14.7746 2.24294 14.1875 1.51756 14.1875H1.5088C0.784304 14.1875 0.200684 14.7746 0.200684 15.5C0.200684 16.2254 0.792188 16.8125 1.51756 16.8125C2.24294 16.8125 2.83006 16.2254 2.83006 15.5Z" fill="white"/>
</svg>
