<svg width="17" height="17" viewBox="0 0 17 17" fill="none" xmlns="http://www.w3.org/2000/svg">
<path d="M0.602107 15.8529L3.8202 12.6348C2.74443 11.3588 2.09346 9.71415 2.09346 7.91869C2.09346 3.87618 5.38193 0.587708 9.42445 0.587708C13.467 0.587708 16.7554 3.87618 16.7554 7.91869C16.7554 11.9612 13.467 15.2497 9.42445 15.2497C7.62899 15.2497 5.98431 14.5987 4.7083 13.5229L1.49025 16.741C1.36793 16.8633 1.20704 16.9253 1.04618 16.9253C0.885317 16.9253 0.72443 16.8642 0.602107 16.741C0.356624 16.4964 0.356624 16.0984 0.602107 15.8529ZM15.4987 7.91869C15.4987 4.56906 12.7741 1.84445 9.42445 1.84445C6.07482 1.84445 3.3502 4.56906 3.3502 7.91869C3.3502 11.2683 6.07482 13.9929 9.42445 13.9929C12.7741 13.9929 15.4987 11.2683 15.4987 7.91869Z" fill="#8B92A1"/>
</svg>
