<svg width="15" height="15" viewBox="0 0 15 15" fill="none" xmlns="http://www.w3.org/2000/svg">
<path d="M7.23528 4.49984C5.75017 4.49984 4.54226 5.70775 4.54226 7.19286C4.54226 8.67796 5.75017 9.88587 7.23528 9.88587C8.72039 9.88587 9.92829 8.67796 9.92829 7.19286C9.92829 5.70775 8.72039 4.49984 7.23528 4.49984ZM7.23528 8.80867C6.34407 8.80867 5.61947 8.08407 5.61947 7.19286C5.61947 6.30165 6.34407 5.57705 7.23528 5.57705C8.12649 5.57705 8.85109 6.30165 8.85109 7.19286C8.85109 8.08407 8.12649 8.80867 7.23528 8.80867ZM13.8479 8.59538C13.3495 8.30669 13.0393 7.76952 13.0385 7.19286C13.0378 6.61763 13.3459 6.08119 13.8508 5.78891C14.2206 5.57419 14.347 5.09804 14.133 4.72748L12.9323 2.65495C12.7183 2.28511 12.2421 2.158 11.8716 2.37129C11.3696 2.6607 10.7455 2.6607 10.2421 2.36842C9.74589 2.08045 9.43709 1.54543 9.43709 0.971638C9.43709 0.541474 9.08664 0.191742 8.65648 0.191742L5.81623 0.191742C5.38535 0.191742 5.03563 0.541474 5.03563 0.971638C5.03563 1.54543 4.72682 2.08044 4.22915 2.36984C3.72717 2.66069 3.10384 2.6614 2.60186 2.37199C2.23058 2.15799 1.75518 2.28583 1.54118 2.65567L0.339009 4.73037C0.125004 5.10022 0.252104 5.5756 0.625536 5.79248C1.1232 6.08045 1.43345 6.61691 1.43489 7.19213C1.43632 7.76808 1.12752 8.30597 0.623388 8.59825C0.443854 8.70238 0.314591 8.8697 0.261448 9.07078C0.208306 9.27114 0.235602 9.48013 0.339732 9.66038L1.53973 11.7315C1.75374 12.102 2.22986 12.2306 2.60186 12.0159C3.10384 11.7265 3.72647 11.7272 4.22126 12.0137L4.22269 12.0144C4.22484 12.0159 4.227 12.0173 4.22988 12.0187C4.72611 12.3067 5.03418 12.8417 5.03346 13.4162C5.03346 13.8464 5.38319 14.1961 5.81336 14.1961H8.65648C9.08664 14.1961 9.43637 13.8464 9.43637 13.4169C9.43637 12.8424 9.74517 12.3074 10.2436 12.018C10.7448 11.7272 11.3681 11.7257 11.8708 12.0159C12.2414 12.2299 12.7168 12.1028 12.9315 11.7329L14.1337 9.65823C14.347 9.28696 14.2199 8.81082 13.8479 8.59538ZM12.1409 10.9466C11.3581 10.6054 10.4497 10.6521 9.70136 11.0852C8.95952 11.5153 8.46976 12.2758 8.37497 13.1175H6.09344C6.00009 12.2758 5.50887 11.5139 4.76703 11.0844C4.02017 10.6514 3.1103 10.6054 2.32969 10.9466L1.41334 9.36449C2.09916 8.85964 2.51352 8.0496 2.51065 7.18784C2.50849 6.33182 2.09485 5.52749 1.41262 5.02264L2.32969 3.43986C3.11102 3.78026 4.0209 3.7343 4.7692 3.30054C5.51032 2.8711 6.00007 2.10989 6.09487 1.26895L8.37497 1.26895C8.46904 2.1106 8.95953 2.87111 9.7028 3.30199C10.4489 3.73503 11.3588 3.78098 12.1409 3.44059L13.0579 5.02264C12.3736 5.52678 11.9599 6.3354 11.9613 7.19573C11.9621 8.05318 12.3757 8.85893 13.0587 9.36522L12.1409 10.9466Z" fill="white"/>
</svg>
