<svg width="27" height="27" viewBox="0 0 27 27" fill="none" xmlns="http://www.w3.org/2000/svg">
<path d="M13.5029 26.8245C13.0599 26.8245 12.671 26.5262 12.5494 26.0935L11.5191 22.4293C10.6026 19.1708 8.1401 16.6689 4.93433 15.7391L1.32785 14.6923C0.902005 14.5687 0.608398 14.1737 0.608398 13.7235C0.608398 13.2734 0.902005 12.8783 1.32785 12.7547L4.93433 11.708C8.14142 10.7768 10.6026 8.27623 11.5191 5.01779L12.5494 1.35358C12.671 0.920911 13.0599 0.622604 13.5029 0.622604C13.9459 0.622604 14.3348 0.920911 14.4564 1.35358L15.4867 5.01779C16.4032 8.27623 18.8657 10.7782 22.0715 11.708L25.6779 12.7547C26.1038 12.8783 26.3974 13.2734 26.3974 13.7235C26.3974 14.1737 26.1038 14.5687 25.6779 14.6923L22.0715 15.7391C18.8644 16.6702 16.4032 19.1708 15.4867 22.4293L14.4564 26.0935C14.3348 26.5262 13.9459 26.8245 13.5029 26.8245ZM5.21076 13.7235L5.47923 13.8015C9.3489 14.9248 12.3206 17.944 13.4275 21.877L13.5042 22.1484L13.5809 21.877C14.6879 17.944 17.6582 14.9262 21.5292 13.8015L21.795 13.7235L21.5266 13.6456C17.6569 12.5223 14.6852 9.50303 13.5783 5.57006L13.5029 5.29996L13.4262 5.57142C12.3192 9.50439 9.34889 12.5223 5.4779 13.6469L5.21076 13.7235Z" fill="white"/>
</svg>
