<svg width="15" height="14" viewBox="0 0 15 14" fill="none" xmlns="http://www.w3.org/2000/svg">
<path d="M11.1035 13.6195C10.896 13.6195 10.6877 13.5699 10.4945 13.4687L7.70245 12.0073C7.64931 11.9793 7.58605 11.9793 7.53291 12.0073L4.74294 13.4673C4.29841 13.6999 3.76994 13.6611 3.36347 13.3653C2.95916 13.0701 2.7595 12.5811 2.84424 12.0877L3.37636 8.99898C3.38641 8.94081 3.36699 8.88195 3.32534 8.84101L0.997877 6.58176C0.652453 6.24639 0.52969 5.753 0.678345 5.29411C0.826999 4.83523 1.21617 4.50704 1.69445 4.43738L4.91318 3.97202C4.97207 3.9634 5.02233 3.92679 5.04818 3.87436L6.44352 1.06073C6.66614 0.61189 7.11572 0.333252 7.61698 0.333252C8.11824 0.333252 8.56781 0.61189 8.79044 1.06073L10.185 3.87366C10.2116 3.92681 10.2619 3.9634 10.3208 3.97202L13.5394 4.43738C14.0177 4.50632 14.407 4.83451 14.5556 5.29411C14.7043 5.753 14.5814 6.24639 14.236 6.58176L11.9092 8.84027C11.8661 8.88192 11.8475 8.94081 11.8576 8.99898L12.3897 12.0892C12.4745 12.5818 12.2762 13.0708 11.8712 13.3653C11.6428 13.534 11.3735 13.6195 11.1035 13.6195ZM7.61768 10.9093C7.81804 10.9093 8.01911 10.9566 8.20152 11.0521L10.9937 12.5136C11.105 12.5725 11.1954 12.5272 11.2385 12.4956C11.2816 12.4647 11.3498 12.3936 11.329 12.273L10.7969 9.18211C10.7265 8.77277 10.8629 8.35625 11.1609 8.06756L13.487 5.80975C13.5567 5.74224 13.5452 5.6661 13.5322 5.62732C13.5193 5.58783 13.4834 5.51891 13.3864 5.50455L10.1678 5.03919C9.75775 4.9803 9.40373 4.72321 9.2206 4.35266L7.82667 1.54042C7.77137 1.42839 7.67224 1.41186 7.61838 1.41186C7.56452 1.41186 7.46548 1.42839 7.41018 1.54042L6.01555 4.35336C5.83314 4.7232 5.4791 4.9803 5.06905 5.03919L1.85031 5.50455C1.75337 5.51891 1.71674 5.58711 1.70453 5.62732C1.6916 5.66682 1.68082 5.74224 1.74976 5.80975L4.07652 8.06831C4.37383 8.35628 4.51026 8.77277 4.43989 9.18211L3.90777 12.2708C3.88694 12.3922 3.95594 12.4633 3.99903 12.4949C4.04355 12.5265 4.13109 12.571 4.24527 12.5128L7.03524 11.0529C7.21621 10.9574 7.41732 10.9093 7.61768 10.9093Z" fill="#8B92A1"/>
</svg>
