<svg width="27" height="27" viewBox="0 0 27 27" fill="none" xmlns="http://www.w3.org/2000/svg">
<path d="M20.9598 0.622604L6.08158 0.622604C2.5637 0.622604 0.626221 2.5911 0.626221 6.16531L0.626221 21.2818C0.626221 24.856 2.5637 26.8245 6.08158 26.8245L20.9598 26.8245C24.4777 26.8245 26.4152 24.856 26.4152 21.2818L26.4152 6.16531C26.4152 2.5911 24.4777 0.622604 20.9598 0.622604ZM24.4314 21.2818C24.4314 23.7542 23.3933 24.8089 20.9598 24.8089L6.08158 24.8089C3.64816 24.8089 2.60999 23.7542 2.60999 21.2818L2.60999 6.16531C2.60999 3.69293 3.64816 2.63813 6.08158 2.63813L20.9598 2.63813C23.3933 2.63813 24.4314 3.69293 24.4314 6.16531L24.4314 21.2818ZM14.5126 16.4109L14.5126 20.442C14.5126 20.9983 14.0682 21.4497 13.5207 21.4497C12.9732 21.4497 12.5288 20.9983 12.5288 20.442L12.5288 16.4109C12.5288 15.8546 12.9732 15.4031 13.5207 15.4031C14.0682 15.4031 14.5126 15.8546 14.5126 16.4109ZM19.8027 13.7235V20.442C19.8027 20.9983 19.3583 21.4497 18.8108 21.4497C18.2632 21.4497 17.8189 20.9983 17.8189 20.442V13.7235C17.8189 13.1673 18.2632 12.7158 18.8108 12.7158C19.3583 12.7158 19.8027 13.1673 19.8027 13.7235ZM9.22255 18.4264L9.22255 20.442C9.22255 20.9983 8.77819 21.4497 8.23067 21.4497C7.68315 21.4497 7.23878 20.9983 7.23878 20.442V18.4264C7.23878 17.8702 7.68315 17.4187 8.23067 17.4187C8.77819 17.4187 9.22255 17.8702 9.22255 18.4264ZM19.726 6.61933C19.7762 6.74295 19.8027 6.87343 19.8027 7.00511L19.8027 9.96115C19.8027 10.5174 19.3583 10.9689 18.8108 10.9689C18.2632 10.9689 17.8189 10.5174 17.8189 9.96115V9.43726L15.4397 11.8543C14.6911 12.6162 13.3818 12.6148 12.6333 11.8543L10.9418 10.136L8.93164 12.1784C8.73855 12.3746 8.48459 12.474 8.23067 12.474C7.97674 12.474 7.72278 12.376 7.5297 12.1784C7.1422 11.7847 7.1422 11.1464 7.5297 10.7527L9.53994 8.71031C10.3136 7.92425 11.5727 7.92559 12.3463 8.71031L14.0378 10.429L16.417 8.01156H15.9012C15.3537 8.01156 14.9093 7.56008 14.9093 7.0038C14.9093 6.44751 15.3537 5.99603 15.9012 5.99603L18.8108 5.99603C18.9404 5.99603 19.0686 6.02272 19.1903 6.07378C19.4323 6.17725 19.6255 6.37343 19.726 6.61933Z" fill="white"/>
</svg>
