<svg width="18" height="17" viewBox="0 0 18 17" fill="none" xmlns="http://www.w3.org/2000/svg">
<path d="M11.9134 3.91874C12.1589 3.67326 12.1589 3.27526 11.9134 3.02978L9.3999 0.516298C9.34209 0.458488 9.27243 0.412418 9.19535 0.380581C9.04203 0.316906 8.8686 0.316906 8.71528 0.380581C8.6382 0.412418 8.56874 0.458488 8.51093 0.516298L5.99745 3.02978C5.75197 3.27526 5.75197 3.67326 5.99745 3.91874C6.11977 4.04106 6.28066 4.10304 6.44152 4.10304C6.60239 4.10304 6.76327 4.0419 6.8856 3.91874L8.32663 2.47765V11.8529C8.32663 12.1998 8.60814 12.4813 8.955 12.4813C9.30187 12.4813 9.58338 12.1998 9.58338 11.8529V2.47847L11.0244 3.91956C11.2707 4.16421 11.6679 4.16423 11.9134 3.91874ZM3.92886 6.19761C4.27572 6.19761 4.55723 6.47912 4.55723 6.82598C4.55723 7.17284 4.27572 7.45435 3.92886 7.45435C2.60761 7.45435 2.04375 8.0182 2.04375 9.33946V13.5286C2.04375 14.8498 2.60761 15.4137 3.92886 15.4137H13.9828C15.304 15.4137 15.8679 14.8498 15.8679 13.5286V9.33946C15.8679 8.0182 15.304 7.45435 13.9828 7.45435C13.6359 7.45435 13.3544 7.17284 13.3544 6.82598C13.3544 6.47912 13.6359 6.19761 13.9828 6.19761C16.0086 6.19761 17.1246 7.31359 17.1246 9.33946V13.5286C17.1246 15.5545 16.0086 16.6704 13.9828 16.6704H3.92886C1.903 16.6704 0.787013 15.5545 0.787013 13.5286V9.33946C0.787013 7.31359 1.903 6.19761 3.92886 6.19761Z" fill="#8B92A1"/>
</svg>
