<svg width="25" height="25" viewBox="0 0 25 25" fill="none" xmlns="http://www.w3.org/2000/svg">
<path d="M14.0882 14.8116C14.0882 17.2168 16.0191 19.1786 18.3864 19.1786L24.3377 19.1786V20.1864C24.3377 22.8737 23.0152 24.2174 20.3702 24.2174L4.50001 24.2174C1.85498 24.2174 0.532471 22.8737 0.532471 20.1864L0.532471 2.71844C0.532471 4.19649 1.72273 5.40581 3.1775 5.40581L20.3702 5.40581C23.0152 5.40581 24.3377 6.7495 24.3377 9.43687V10.4446H18.3864C16.0191 10.4446 14.0882 12.4064 14.0882 14.8116ZM18.3864 12.4602C17.1168 12.4602 16.072 13.5217 16.072 14.8116C16.072 16.1015 17.1168 17.1631 18.3864 17.1631L24.3377 17.1631V12.4602H18.3864ZM19.0741 16.1553C18.3467 16.1553 17.7384 15.5506 17.7384 14.8116C17.7384 14.0726 18.3335 13.4679 19.0609 13.4679H19.0741C19.8015 13.4679 20.3966 14.0726 20.3966 14.8116C20.3966 15.5506 19.8015 16.1553 19.0741 16.1553ZM16.4026 0.0310669L4.16938 0.0310669C3.25685 0.0310669 2.51624 0.783531 2.51624 1.71067C2.51624 2.63782 3.25685 3.39028 4.16938 3.39028L20.3304 3.39028C20.1321 1.14633 18.8228 0.0310669 16.4026 0.0310669Z" fill="#8B92A1"/>
</svg>
