<svg width="28" height="30" viewBox="0 0 28 30" fill="none" xmlns="http://www.w3.org/2000/svg">
<circle cx="13.7165" cy="15.1821" r="13.3104" fill="#8B92A1"/>
<path d="M17.8254 18.1321C17.8254 18.7546 17.6697 19.3512 17.3585 19.9218C17.0472 20.4795 16.5868 20.9464 15.9773 21.3225C15.3807 21.6986 14.6609 21.9126 13.8179 21.9645V23.5402H12.7674V21.9645C11.5872 21.8607 10.6275 21.4846 9.88824 20.8362C9.14899 20.1747 8.77289 19.3382 8.75992 18.3266H10.6469C10.6988 18.8713 10.8998 19.3447 11.25 19.7468C11.6131 20.1488 12.1189 20.4017 12.7674 20.5055V15.642C11.8985 15.4215 11.1981 15.1946 10.6664 14.9611C10.1347 14.7277 9.68073 14.3646 9.30462 13.8717C8.92852 13.3789 8.74047 12.7175 8.74047 11.8875C8.74047 10.837 9.1036 9.96802 9.82988 9.28065C10.5691 8.59329 11.5483 8.2107 12.7674 8.13288V6.51822H13.8179V8.13288C14.9203 8.22367 15.8087 8.58032 16.4831 9.20284C17.1574 9.81239 17.5465 10.61 17.6503 11.5956H15.7633C15.6984 11.1417 15.4974 10.7332 15.1602 10.3701C14.823 9.99396 14.3756 9.74754 13.8179 9.63082V14.3775C14.6739 14.598 15.3677 14.825 15.8994 15.0584C16.4441 15.2789 16.8981 15.6355 17.2612 16.1284C17.6373 16.6212 17.8254 17.2891 17.8254 18.1321ZM10.5497 11.7902C10.5497 12.4257 10.7377 12.912 11.1138 13.2492C11.4899 13.5864 12.0411 13.8652 12.7674 14.0857V9.59191C12.093 9.65676 11.5548 9.87723 11.1527 10.2533C10.7507 10.6165 10.5497 11.1288 10.5497 11.7902ZM13.8179 20.5249C14.5182 20.4471 15.0629 20.1942 15.452 19.7662C15.854 19.3382 16.0551 18.826 16.0551 18.2294C16.0551 17.5939 15.8605 17.1075 15.4715 16.7703C15.0824 16.4202 14.5312 16.1413 13.8179 15.9338V20.5249Z" fill="white"/>
</svg>
